<?xml version="1.0" standalone="no"?>
<!DOCTYPE svg PUBLIC "-//W3C//DTD SVG 20010904//EN"
 "http://www.w3.org/TR/2001/REC-SVG-20010904/DTD/svg10.dtd">
<svg version="1.0" xmlns="http://www.w3.org/2000/svg"
 width="830.000000pt" height="521.000000pt" viewBox="0 0 830.000000 521.000000"
 preserveAspectRatio="xMidYMid meet">

<g transform="translate(0.000000,521.000000) scale(0.100000,-0.100000)"
fill="#000000" stroke="none">
<path d="M3647 4628 c-4 -46 -14 -180 -22 -298 -8 -118 -22 -293 -31 -387
l-17 -173 -73 0 -74 0 -2 -387 -3 -388 -127 1 -128 2 0 -29 0 -29 233 0 c177
1 236 4 250 14 15 12 17 36 17 250 l0 236 110 0 110 0 0 -164 0 -164 25 11 25
12 0 178 0 177 -160 0 -160 0 0 -245 c0 -156 -4 -245 -10 -246 -5 0 -36 -1
-67 -1 l-58 0 0 358 0 359 289 3 c195 1 293 -1 300 -8 7 -7 10 -92 9 -253 -1
-133 0 -250 3 -259 3 -10 14 -18 25 -18 18 0 19 10 19 270 l0 270 53 52 c239
236 317 309 324 305 5 -3 8 -80 6 -171 -2 -91 0 -166 4 -166 4 0 86 77 182
170 96 94 177 170 181 170 5 0 7 -78 6 -174 -1 -203 -19 -197 139 -45 159 153
209 199 220 199 7 0 9 -152 7 -443 l-3 -444 30 0 31 0 0 515 0 515 -57 -54
c-32 -29 -111 -104 -176 -166 -66 -62 -123 -113 -128 -113 -5 0 -10 76 -11
169 l-3 170 -70 -67 c-39 -37 -119 -113 -178 -169 -60 -57 -113 -103 -118
-103 -6 0 -9 63 -7 170 2 94 1 170 -2 170 -3 -1 -106 -99 -230 -220 l-225
-219 -71 -1 -71 0 -11 118 c-7 64 -18 203 -27 307 -8 105 -22 263 -31 353
l-17 162 -112 0 -112 0 -6 -82z m187 24 c2 -4 9 -86 15 -182 7 -96 20 -263 31
-370 10 -107 21 -225 25 -262 l6 -68 -136 0 -135 0 0 63 c1 34 5 109 10 167 6
58 19 225 29 372 11 148 23 272 26 278 7 12 122 14 129 2z"/>
<path d="M5254 3115 c-3 -7 -4 -37 -2 -66 l3 -54 -228 0 -229 0 33 -27 33 -28
283 0 283 0 0 31 0 31 -55 -5 c-32 -3 -58 -1 -61 5 -4 6 -6 36 -5 68 1 55 0
58 -25 58 -14 0 -28 -6 -30 -13z"/>
<path d="M4130 2681 c-145 -37 -254 -154 -291 -313 l-20 -87 20 -95 c37 -175
132 -274 310 -327 159 -47 371 36 460 180 64 105 83 228 52 341 -66 238 -288
364 -531 301z m268 -102 c68 -34 124 -91 162 -165 22 -42 25 -62 25 -144 -1
-79 -4 -102 -24 -139 -34 -65 -106 -137 -167 -167 -45 -22 -66 -26 -143 -26
-79 0 -99 3 -146 26 -62 31 -129 100 -165 172 -21 41 -25 63 -25 139 0 79 3
96 27 141 71 134 164 192 314 193 71 1 88 -3 142 -30z"/>
<path d="M2990 2529 c-60 -12 -118 -54 -157 -114 -31 -46 -33 -56 -33 -135 0
-79 2 -89 33 -135 17 -27 52 -63 77 -80 42 -28 51 -30 135 -30 88 0 92 1 140
35 71 51 105 120 105 213 0 88 -27 146 -92 198 -41 32 -124 63 -156 58 -4 -1
-27 -5 -52 -10z m133 -104 c68 -47 97 -147 62 -214 -19 -38 -66 -77 -110 -91
-30 -10 -43 -9 -78 5 -56 22 -76 41 -98 93 -24 56 -24 83 1 133 47 91 148 125
223 74z"/>
<path d="M5401 2528 c-56 -13 -127 -66 -160 -121 -22 -36 -25 -54 -26 -127 0
-74 3 -90 25 -125 51 -83 128 -127 219 -126 95 0 168 42 215 125 30 52 39 103
30 173 -5 45 -15 65 -48 106 -67 82 -160 117 -255 95z m141 -111 c114 -87 100
-226 -29 -291 -42 -21 -66 -20 -111 3 -127 65 -138 224 -20 295 60 36 106 34
160 -7z"/>
<path d="M6390 1150 c-39 -39 -12 -90 48 -90 49 0 71 60 34 93 -25 23 -58 21
-82 -3z"/>
<path d="M5062 1107 c-55 -55 -57 -67 -12 -67 27 0 71 28 140 89 l35 30 -55 1
c-54 0 -57 -1 -108 -53z"/>
<path d="M5422 823 l3 -338 38 -3 c36 -3 37 -3 37 32 0 20 2 36 5 36 2 0 25
-15 51 -32 43 -31 51 -33 129 -33 80 0 85 2 127 35 77 61 96 101 97 203 1 90
-25 151 -83 195 -82 62 -169 69 -262 22 -32 -16 -60 -30 -61 -30 -2 0 -3 56
-3 125 l0 125 -40 0 -40 0 2 -337z m335 45 c45 -31 68 -81 68 -148 -1 -100
-59 -160 -155 -160 -98 0 -160 66 -160 170 0 61 18 99 62 134 45 35 136 37
185 4z"/>
<path d="M982 803 l3 -318 68 -3 67 -3 0 321 0 320 -70 0 -70 0 2 -317z"/>
<path d="M4350 800 l0 -321 43 3 42 3 3 132 3 132 157 3 157 3 3 33 3 32 -160
0 -161 0 0 100 c0 55 -1 103 -2 108 -2 4 78 9 177 12 l180 5 0 35 0 35 -222 3
-223 2 0 -320z"/>
<path d="M1870 1021 l0 -60 -37 -3 -38 -3 0 -50 0 -50 37 -3 36 -3 4 -132 c4
-143 12 -167 60 -206 22 -18 46 -25 97 -29 64 -4 146 11 139 26 -2 4 -11 28
-22 54 -16 41 -21 46 -37 38 -28 -16 -57 -12 -79 10 -18 18 -20 33 -20 130 l0
110 60 0 60 0 0 55 0 55 -60 0 -60 0 0 60 0 60 -70 0 -70 0 0 -59z"/>
<path d="M1250 965 c0 -3 -1 -112 -1 -242 l0 -238 68 0 68 0 1 147 c1 165 8
188 71 214 42 18 84 11 109 -18 16 -17 20 -43 24 -182 l5 -161 65 0 65 0 3
172 c2 167 2 174 -22 222 -33 64 -85 91 -178 91 -53 0 -72 -5 -102 -25 -20
-14 -41 -25 -45 -25 -5 0 -6 11 -3 25 4 25 3 25 -62 25 -36 0 -66 -2 -66 -5z"/>
<path d="M2344 956 c-121 -55 -179 -187 -135 -310 24 -68 48 -97 111 -134 41
-25 54 -27 152 -27 102 0 108 1 150 30 23 17 43 37 43 44 0 8 -16 27 -36 43
l-36 29 -37 -22 c-30 -17 -48 -21 -98 -17 -55 4 -64 8 -95 42 -19 20 -31 41
-28 46 4 6 81 10 187 10 l180 0 -4 63 c-4 71 -36 129 -101 181 -35 28 -44 30
-130 33 -63 2 -102 -1 -123 -11z m185 -113 c17 -16 31 -37 33 -48 3 -19 -3
-20 -111 -20 -132 0 -143 7 -86 60 31 30 43 35 86 35 39 0 54 -5 78 -27z"/>
<path d="M2890 949 c-89 -53 -124 -113 -123 -209 0 -77 27 -135 82 -180 68
-57 176 -67 255 -25 l46 24 0 -25 c0 -13 -6 -40 -14 -58 -28 -67 -146 -84
-253 -36 -46 20 -48 19 -78 -39 -14 -28 -15 -36 -3 -46 27 -25 105 -47 184
-52 138 -9 229 30 277 121 21 39 22 56 25 294 l4 252 -66 0 c-64 0 -66 -1 -66
-25 0 -14 -2 -25 -6 -25 -3 0 -22 11 -42 25 -50 34 -168 36 -222 4z m206 -108
c60 -37 69 -133 18 -184 -43 -43 -137 -45 -178 -4 -37 36 -47 101 -22 145 32
59 122 80 182 43z"/>
<path d="M3412 728 l3 -243 65 0 65 0 5 145 c3 91 10 153 18 167 17 30 63 53
107 53 l35 0 0 61 0 61 -55 -4 c-38 -3 -62 -11 -78 -26 -30 -28 -37 -28 -37 3
0 24 -2 25 -65 25 l-65 0 2 -242z"/>
<path d="M3860 961 c-40 -13 -91 -41 -87 -49 30 -63 44 -82 57 -78 8 3 33 12
55 20 82 31 164 12 183 -43 14 -39 16 -39 -113 -43 -116 -4 -156 -21 -186 -80
-24 -46 -24 -72 0 -124 42 -92 218 -117 299 -42 l22 21 0 -31 0 -32 61 0 60 0
-3 183 c-3 207 -8 224 -76 272 -41 28 -50 30 -145 32 -56 1 -113 -1 -127 -6z
m220 -295 c0 -33 -34 -73 -75 -86 -80 -26 -148 37 -98 92 13 14 31 18 95 18
75 0 78 -1 78 -24z"/>
<path d="M4958 956 c-50 -18 -88 -44 -88 -59 0 -6 7 -20 14 -30 13 -17 16 -16
61 3 31 13 69 20 112 20 58 0 67 -3 94 -29 21 -22 29 -39 29 -65 l0 -36 -105
0 c-67 0 -117 -5 -138 -14 -104 -44 -116 -180 -22 -242 42 -27 152 -31 208 -6
26 12 47 26 47 31 0 24 19 9 22 -16 3 -24 8 -28 41 -31 l37 -3 0 163 c-1 182
-8 228 -42 265 -53 59 -180 81 -270 49z m222 -297 c0 -97 -146 -151 -221 -83
-24 22 -25 76 -1 96 23 22 44 25 140 27 l82 1 0 -41z"/>
<path d="M6032 728 l3 -243 40 0 40 0 5 155 c4 129 8 161 23 184 20 30 87 65
125 66 19 0 22 5 22 40 0 38 -2 40 -30 40 -40 0 -90 -22 -115 -50 l-20 -22 -5
33 c-5 32 -8 34 -48 37 l-42 3 2 -243z"/>
<path d="M6390 725 l0 -246 43 3 42 3 0 240 0 240 -42 3 -43 3 0 -246z"/>
<path d="M6760 961 c-139 -43 -210 -207 -147 -343 39 -87 120 -137 222 -138
67 0 118 15 155 46 51 44 55 59 18 82 l-32 21 -38 -35 c-34 -30 -44 -34 -94
-34 -101 0 -165 65 -164 167 2 104 61 163 164 163 54 0 66 -4 98 -31 l37 -30
31 22 30 23 -27 29 c-42 44 -99 67 -168 66 -33 0 -71 -4 -85 -8z"/>
<path d="M7208 956 c-21 -7 -49 -21 -63 -30 -24 -16 -25 -18 -10 -46 9 -17 18
-30 21 -30 2 0 23 9 45 21 53 26 155 29 192 5 28 -19 51 -65 45 -93 -3 -16
-17 -19 -118 -23 -162 -8 -210 -38 -210 -134 0 -60 16 -92 59 -119 30 -18 50
-22 123 -22 82 0 88 2 117 29 l29 28 4 -28 c3 -27 6 -29 43 -29 l40 0 -4 185
c-4 209 -8 225 -73 268 -35 23 -53 27 -122 30 -50 1 -95 -3 -118 -12z m232
-287 c0 -36 -15 -67 -44 -90 -83 -68 -220 -27 -201 60 11 51 29 58 158 60 l87
1 0 -31z"/>
</g>
</svg>
